<?xml version="1.0" standalone="yes"?>
<svg xmlns="http://www.w3.org/2000/svg" width="24" height="24">
<path style="fill:#010101; stroke:none;" d="M0 0L0 24L24 24L24 0L0 0z"/>
<path style="fill:#fffef7; stroke:none;" d="M4 2L5 3L4 2z"/>
<path style="fill:#fdfbf8; stroke:none;" d="M3 22L20 22C21.0746 17.4866 22.7304 8.45125 19.9722 4.3179C17.5563 0.697487 6.44366 0.697489 4.02778 4.3179C1.1471 8.63485 3.34345 17.0088 3 22z"/>
<path style="fill:#fffef7; stroke:none;" d="M19 2L20 3L19 2z"/>
<path style="fill:#fffefe; stroke:none;" d="M3 3L4 4L3 3M20 3L21 4L20 3z"/>
<path style="fill:#fffef7; stroke:none;" d="M5 4L5 21L6 21L5 4z"/>
<path style="fill:#010101; stroke:none;" d="M6 4L6 20C10.7777 17.6417 13.2223 17.6417 18 20L18 4L6 4z"/>
<path style="fill:#fffef7; stroke:none;" d="M18 4L18 21L19 21L18 4z"/>
<path style="fill:#82aaff; stroke:none;" d="M11 7L8 11L12 15L16 11L11 7z"/>
<path style="fill:#fffef7; stroke:none;" d="M10 17L11 18L10 17M13 17L14 18L13 17z"/>
<path style="fill:#fffefe; stroke:none;" d="M8 18L9 19L8 18z"/>
<path style="fill:#fffef7; stroke:none;" d="M9 18L10 19L9 18M14 18L15 19L14 18z"/>
<path style="fill:#fffefe; stroke:none;" d="M15 18L16 19L15 18z"/>
<path style="fill:#fffef7; stroke:none;" d="M12 19L13 20L12 19M16 19L17 20L16 19M3 20L4 21L3 20M9 20L10 21L9 20M14 20L15 21L14 20M20.3333 20.6667L20.6667 21.3333L20.3333 20.6667M7 21L8 22L7 21z"/>
<path style="fill:#fffefe; stroke:none;" d="M8 21L9 22L8 21M15 21L16 22L15 21z"/>
<path style="fill:#fffef7; stroke:none;" d="M16 21L17 22L16 21M4.66667 22.3333L5.33333 22.6667L4.66667 22.3333z"/>
<path style="fill:#fffefe; stroke:none;" d="M6 22L7 23L6 22M17 22L18 23L17 22z"/>
<path style="fill:#fffef7; stroke:none;" d="M18.6667 22.3333L19.3333 22.6667L18.6667 22.3333z"/>
</svg>
