<?xml version="1.0" standalone="yes"?>
<svg xmlns="http://www.w3.org/2000/svg" width="32" height="32">
<path style="fill:#010101; stroke:none;" d="M0 0L0 32L32 32L32 0L0 0z"/>
<path style="fill:#fefefe; stroke:none;" d="M12 5L13 6L12 5z"/>
<path style="fill:#fdfbf9; stroke:none;" d="M10 16C5.73135 18.3361 3.96227 21.2863 3 26L10 17C16.9139 18.5358 18.6487 20.4974 23 26C24.0349 21.0206 21.3784 18.0906 17 16C24.9374 5.94455 4.24474 1.55764 10 16z"/>
<path style="fill:#fafaf8; stroke:none;" d="M14 5L15 6L14 5z"/>
<path style="fill:#fefefe; stroke:none;" d="M17 6L18 7L17 6z"/>
<path style="fill:#fefef7; stroke:none;" d="M9 7L10 8L9 7z"/>
<path style="fill:#fefefe; stroke:none;" d="M18 7L19 8L18 7z"/>
<path style="fill:#fafaf8; stroke:none;" d="M8 8L9 9L8 8M11.6667 8.33333L12.3333 8.66667L11.6667 8.33333z"/>
<path style="fill:#fefefe; stroke:none;" d="M13 8L14 9L13 8z"/>
<path style="fill:#fefef7; stroke:none;" d="M14.6667 8.33333L15.3333 8.66667L14.6667 8.33333z"/>
<path style="fill:#fafaf8; stroke:none;" d="M18 8L19 9L18 8z"/>
<path style="fill:#fefef7; stroke:none;" d="M21 8L22 9L21 8z"/>
<path style="fill:#fdfbf9; stroke:none;" d="M22 8L25 12L22 17L28 21C27.9786 16.0315 26.5768 10.4223 22 8z"/>
<path style="fill:#fafaf8; stroke:none;" d="M24 8L25 9L24 8z"/>
<path style="fill:#fefef7; stroke:none;" d="M8 9L9 10L8 9z"/>
<path style="fill:#fefefe; stroke:none;" d="M11 9L12 10L11 9z"/>
<path style="fill:#010101; stroke:none;" d="M12.6173 10.0671C10.5698 11.6546 13.2824 14.4451 15.1682 12.9329C17.1479 11.3453 14.5347 8.5805 12.6173 10.0671z"/>
<path style="fill:#fafaf8; stroke:none;" d="M16 9L17 10L16 9z"/>
<path style="fill:#fefefe; stroke:none;" d="M19 9L20 10L19 9z"/>
<path style="fill:#fafaf8; stroke:none;" d="M21 9L22 10L21 9M25 9L26 10L25 9z"/>
<path style="fill:#fefefe; stroke:none;" d="M16 10L17 11L16 10z"/>
<path style="fill:#fefef7; stroke:none;" d="M10 11L11 12L10 11M26 11L27 12L26 11M8 12L8 15L9 15L8 12z"/>
<path style="fill:#fafaf8; stroke:none;" d="M10 12L11 13L10 12z"/>
<path style="fill:#fefef7; stroke:none;" d="M16 12L17 13L16 12M19 12L20 13L19 12M24 12L25 13L24 12M11 13L12 14L11 13z"/>
<path style="fill:#fefefe; stroke:none;" d="M19 13L20 14L19 13z"/>
<path style="fill:#fefef7; stroke:none;" d="M26 13L27 14L26 13M14 14L15 15L14 14M22 14L23 15L22 14z"/>
<path style="fill:#fefefe; stroke:none;" d="M26.3333 14.6667L26.6667 15.3333L26.3333 14.6667z"/>
<path style="fill:#fefef7; stroke:none;" d="M9 15L10 16L9 15z"/>
<path style="fill:#fafaf8; stroke:none;" d="M17 15L18 16L17 15z"/>
<path style="fill:#fefefe; stroke:none;" d="M18 15L19 16L18 15z"/>
<path style="fill:#fefef7; stroke:none;" d="M21 15L21 19L22 19L21 15M7.66667 16.3333L8.33333 16.6667L7.66667 16.3333z"/>
<path style="fill:#fafaf8; stroke:none;" d="M19 16L20 17L19 16z"/>
<path style="fill:#fefefe; stroke:none;" d="M27 16L28 17L27 16z"/>
<path style="fill:#fafaf8; stroke:none;" d="M6 17L7 18L6 17M10 17L11 18L10 17M12.6667 17.3333L13.3333 17.6667L12.6667 17.3333z"/>
<path style="fill:#fefef7; stroke:none;" d="M15 17L16 18L15 17z"/>
<path style="fill:#fafaf8; stroke:none;" d="M20 17L21 18L20 17z"/>
<path style="fill:#010101; stroke:none;" d="M21 17L22 18L21 17z"/>
<path style="fill:#fafaf8; stroke:none;" d="M23 17L24 18L23 17z"/>
<path style="fill:#fefef7; stroke:none;" d="M5 18L6 19L5 18z"/>
<path style="fill:#fefefe; stroke:none;" d="M10 18L11 19L10 18z"/>
<path style="fill:#fefef7; stroke:none;" d="M17 18L18 19L17 18M28 18L29 19L28 18z"/>
<path style="fill:#fefefe; stroke:none;" d="M4 19L5 20L4 19z"/>
<path style="fill:#fafaf8; stroke:none;" d="M8 19L9 20L8 19z"/>
<path style="fill:#fefefe; stroke:none;" d="M18 19L19 20L18 19z"/>
<path style="fill:#fafaf8; stroke:none;" d="M22 19L23 20L22 19z"/>
<path style="fill:#fefefe; stroke:none;" d="M25 19L26 20L25 19z"/>
<path style="fill:#fefef7; stroke:none;" d="M4 20L5 21L4 20z"/>
<path style="fill:#fefefe; stroke:none;" d="M19 20L20 21L19 20z"/>
<path style="fill:#fafaf8; stroke:none;" d="M28.3333 20.6667L28.6667 21.3333L28.3333 20.6667M20 21L21 22L20 21M23 21L24 22L23 21M26 21L27 22L26 21z"/>
<path style="fill:#fefef7; stroke:none;" d="M27 21L28 22L27 21z"/>
<path style="fill:#fafaf8; stroke:none;" d="M3 22L4 23L3 22M23 23L24 24L23 23M3 24L4 25L3 24z"/>
<path style="fill:#fefef7; stroke:none;" d="M21.3333 24.6667L21.6667 25.3333L21.3333 24.6667z"/>
<path style="fill:#fafaf8; stroke:none;" d="M5 25L4 27L5 25M23 25L24 26L23 25z"/>
<path style="fill:#fefefe; stroke:none;" d="M5 26L6 27L5 26z"/>
<path style="fill:#fefef7; stroke:none;" d="M22 26L23 27L22 26z"/>
<path style="fill:#fefefe; stroke:none;" d="M23 26L24 27L23 26z"/>
</svg>
